<?xml version="1.0" encoding="utf-8"?>
<!-- Generator: Adobe Illustrator 22.0.1, SVG Export Plug-In . SVG Version: 6.00 Build 0)  -->
<svg version="1.1" id="Слой_1" xmlns="http://www.w3.org/2000/svg" xmlns:xlink="http://www.w3.org/1999/xlink" x="0px" y="0px"
	 viewBox="0 0 96 106" style="enable-background:new 0 0 96 106;" xml:space="preserve">
<style type="text/css">
	.st0{fill:#4044A2;}
	.st1{fill:#4D51B4;}
	.st2{fill:#6A6EDD;}
	.st3{display:none;fill:#FFFFFF;}
</style>
<path class="st0" d="M54.5,1.8c-4-2.3-9-2.3-13,0l-34.6,20c-4,2.3-6.5,6.6-6.5,11.3v40c0,4.6,2.5,8.9,6.5,11.3l34.6,20
	c4,2.3,9,2.3,13,0l34.6-20c4-2.3,6.5-6.6,6.5-11.3V33c0-4.6-2.5-8.9-6.5-11.3L54.5,1.8z"/>
<path class="st1" d="M80.3,89.4l-25.8,14.9c-4,2.3-9,2.3-13,0l-34.6-20c-4-2.3-6.5-6.6-6.5-11.3V33c0-4.6,2.5-8.9,6.5-11.3L35.2,5.4
	c1.2,0.3,2.3,0.7,3.3,1.3l37.2,21.5c4,2.3,6.5,6.6,6.5,11.3v43C82.2,85,81.5,87.3,80.3,89.4z"/>
<path class="st2" d="M67.7,96.6l-13.2,7.6c-4,2.3-9,2.3-13,0l-34.6-20c-4-2.3-6.5-6.6-6.5-11.3V33c0-4.6,2.5-8.9,6.5-11.3l14.7-8.5
	c1.4,0.3,2.7,0.8,3.9,1.5l37.2,21.5c4,2.3,6.5,6.6,6.5,11.3v43C69.2,92.7,68.7,94.8,67.7,96.6z"/>
<path class="st3" d="M43.6,95.9c1.2-0.5,2.3-1.1,3.4-1.7c4.8-2.8,8.5-6.7,11.2-11.6c2.7-5,4-10.6,4-16.8v-3.1
	c0-6.2-1.4-11.8-4.1-16.7c-2.7-5-6.4-8.9-11.3-11.6c-4.8-2.8-10.2-4.1-16.3-4.1h-22v45.3c0.5,0.4,1.1,0.8,1.7,1.2L25,85.1V42.8h5.5
	c4.8,0,8.5,1.7,11.1,5c2.5,3.3,3.8,8.3,3.8,14.9v3c0,6.6-1.3,11.6-3.8,15c-2.5,3.3-6.2,5-10.9,5H26L43.6,95.9z"/>
</svg>
