<svg width="96" height="106" viewBox="0 0 96 106" fill="none" xmlns="http://www.w3.org/2000/svg">
<path fill-rule="evenodd" clip-rule="evenodd" d="M54.5005 1.75241C50.4783 -0.569814 45.5228 -0.569815 41.5005 1.75241L6.86914 21.7469C2.84693 24.0691 0.369141 28.3607 0.369141 33.0052V72.9941C0.369141 77.6385 2.84693 81.9302 6.86914 84.2524L41.5005 104.247C45.5228 106.569 50.4783 106.569 54.5005 104.247L89.1319 84.2524C93.1541 81.9302 95.6319 77.6385 95.6319 72.9941V33.0052C95.6319 28.3607 93.1541 24.0691 89.1319 21.7469L54.5005 1.75241Z" fill="#4044A2"/>
<path fill-rule="evenodd" clip-rule="evenodd" d="M80.2598 89.3749L54.5005 104.247C50.4783 106.569 45.5228 106.569 41.5005 104.247L6.86914 84.2526C2.84693 81.9304 0.369141 77.6387 0.369141 72.9942V33.0054C0.369141 28.3609 2.84693 24.0692 6.86914 21.747L35.1756 5.4043C36.3257 5.69386 37.4452 6.14329 38.5005 6.75257L75.73 28.247C79.7522 30.5692 82.23 34.8609 82.23 39.5054V82.4942C82.23 84.9696 81.5262 87.3447 80.2598 89.3749Z" fill="#4D51B4"/>
<path fill-rule="evenodd" clip-rule="evenodd" d="M67.6897 96.6329L54.5005 104.248C50.4783 106.57 45.5228 106.57 41.5005 104.248L6.86914 84.2532C2.84693 81.931 0.369141 77.6393 0.369141 72.9949V33.006C0.369141 28.3615 2.84693 24.0699 6.86914 21.7477L21.5588 13.2666C22.9249 13.5407 24.257 14.0366 25.5 14.7542L62.7295 36.2486C66.7517 38.5709 69.2295 42.8625 69.2295 47.507V90.4959C69.2295 92.6748 68.6841 94.7761 67.6897 96.6329Z" fill="#6A6EDD"/>
<path fill-rule="evenodd" clip-rule="evenodd" d="M40.2077 103.501C41.3825 103.002 42.5268 102.429 43.6406 101.781C48.4531 98.9688 52.1719 95.0938 54.7969 90.1562C57.4531 85.1875 58.7812 79.5781 58.7812 73.3281V70.1875C58.75 64 57.375 58.4219 54.6562 53.4531C51.9688 48.4531 48.2188 44.5938 43.4062 41.875C38.5938 39.125 33.1719 37.75 27.1406 37.75H5.15625V83.0724C5.68972 83.507 6.26157 83.9023 6.8686 84.2528L21.6094 92.7634V50.4531H27.1406C31.9844 50.4531 35.6719 52.125 38.2031 55.4688C40.7344 58.8125 42 63.7813 42 70.375V73.3281C42 79.9531 40.7344 84.9531 38.2031 88.3281C35.6719 91.6719 32.0469 93.3438 27.3281 93.3438H22.6146L40.2077 103.501Z" fill="white"/>
</svg>
